/* XPM */
static char *Watch[] = {
/* columns rows colors chars-per-pixel */
"48 48 211 2 ",
"   c black",
".  c #080000",
"X  c #181008",
"o  c #081018",
"O  c #181010",
"+  c #101018",
"@  c #101818",
"#  c #281010",
"$  c #201810",
"%  c #281810",
"&  c #301810",
"*  c #381818",
"=  c #282010",
"-  c #302018",
";  c #382818",
":  c #101820",
">  c #111B23",
",  c #102028",
"<  c #182028",
"1  c #182030",
"2  c #182830",
"3  c #182838",
"4  c #382820",
"5  c #203038",
"6  c #402820",
"7  c #482820",
"8  c #502828",
"9  c #483020",
"0  c #483820",
"q  c #583028",
"w  c #503828",
"e  c #583828",
"r  c #603830",
"t  c #683830",
"y  c #703838",
"u  c #584028",
"i  c #684030",
"p  c #604830",
"a  c #684830",
"s  c #704038",
"d  c #704838",
"f  c #685030",
"g  c #705038",
"h  c #785838",
"j  c #283850",
"k  c #402040",
"l  c #284058",
"z  c #304858",
"x  c #305068",
"c  c #385068",
"v  c #385870",
"b  c #385878",
"n  c #805038",
"m  c #806838",
"M  c #904840",
"N  c #885840",
"B  c #905848",
"V  c #A04040",
"C  c #806040",
"Z  c #906848",
"A  c #987048",
"S  c #907848",
"D  c #A06850",
"F  c #A07850",
"G  c #A87858",
"H  c #804060",
"J  c #B07860",
"K  c #C06060",
"L  c #C07878",
"P  c #A08040",
"I  c #B08058",
"U  c #B88068",
"Y  c #B88868",
"T  c #B09860",
"R  c #B89068",
"E  c #B88870",
"W  c #B89070",
"Q  c #90B868",
"!  c #C08078",
"~  c #C09870",
"^  c #C09078",
"/  c #C09878",
"(  c #C0A060",
")  c #406080",
"_  c #406888",
"`  c #487090",
"'  c #507898",
"]  c #4040A0",
"[  c #4060A0",
"{  c #5078A0",
"}  c #5870B0",
"|  c #6078B0",
" . c #489090",
".. c #78B898",
"X. c #5080A8",
"o. c #5880A8",
"O. c #5888A8",
"+. c #5888B0",
"@. c #6088B0",
"#. c #7088B8",
"$. c #6890B0",
"%. c #6890B8",
"&. c #7098B8",
"*. c #7898B8",
"=. c #70A8B8",
"-. c #7890C0",
";. c #60A0C0",
":. c #78A0C0",
">. c #78A8C0",
",. c #78B0C0",
"<. c #C89080",
"1. c #C89088",
"2. c #C89888",
"3. c #D09890",
"4. c #C0A080",
"5. c #C0A880",
"6. c #C0A088",
"7. c #C8A088",
"8. c #C8A888",
"9. c #C8A090",
"0. c #C8A890",
"q. c #C8B090",
"w. c #D0B098",
"e. c #C080A0",
"r. c #D0A8A0",
"t. c #D8A8A0",
"y. c #D0B8A0",
"u. c #D0B8A8",
"i. c #D8B8A8",
"p. c #80C0A0",
"a. c #D8C0A8",
"s. c #D8C8A8",
"d. c #D8C0B0",
"f. c #E0C0B8",
"g. c #E0C8B8",
"h. c #8098C8",
"j. c #8898C8",
"k. c #9098C8",
"l. c #80A0C0",
"z. c #88A8C0",
"x. c #88A0C8",
"c. c #88A8C8",
"v. c #90A0C8",
"b. c #90A8C8",
"n. c #80B0C8",
"m. c #88B8C8",
"M. c #90B0C8",
"N. c #98B0C8",
"B. c #90B8C8",
"V. c #98A8D0",
"C. c #98B0D0",
"Z. c #98B8D0",
"A. c #A0A8D0",
"S. c #A0B8D0",
"D. c #A0B0D8",
"F. c #A8B0D8",
"G. c #A8B8D8",
"H. c #C0B0D8",
"J. c #90C0C8",
"K. c #98C0D0",
"L. c #98C8D0",
"P. c #A8C0D0",
"I. c #A0C8D0",
"U. c #A0C0D8",
"Y. c #A8C0D8",
"T. c #A8C8D8",
"R. c #B0C0D8",
"E. c #B0C8D8",
"W. c #B8C8D8",
"Q. c #A8D0D8",
"!. c #B0D0D8",
"~. c #B8D8D8",
"^. c #B8C0E0",
"/. c #B8C8E0",
"(. c #B8D0E0",
"). c #B8D8E0",
"_. c #E0C8C0",
"`. c #E8C8C0",
"'. c #E8D0C8",
"]. c #E8D8C8",
"[. c #E8D8D0",
"{. c #F0E8D8",
"}. c #C0C0E0",
"|. c #C0C8E0",
" X c #C0D8E0",
".X c #C8D8E0",
"XX c #C0D0E8",
"oX c #C8D0E8",
"OX c #C8D8E8",
"+X c #D0D0E8",
"@X c #D0D8E8",
"#X c #D0D8F0",
"$X c #C0E0E0",
"%X c #C8E0E8",
"&X c #D0E0E8",
"*X c #D8E0E8",
"=X c #D0E8E8",
"-X c #D8E0F0",
";X c #D0E8F0",
":X c #D8E8F0",
">X c #D8F0F0",
",X c #F0E8E0",
"<X c #E0E8F0",
"1X c #E0E8F8",
"2X c #E8E8F8",
"3X c #E0F0F8",
"4X c #E8F0F8",
"5X c #E8F8F8",
"6X c GhostWhite",
"7X c #F8FFFF",
"8X c white",
/* pixels */
"B.M.J.J.K.K.K.Z.K.K.S.I.S.I.T.Q.Y.Y.!.!.~.).(.^.)._.8XI ) H b v v v v v v v v v v v v v c ) { %.",
">.>.>.,.,.,.,.n.n.n.m.m.m.m.J.B.K.K.K.I.I.I.U.D.Y.,X^ $ > > - 2 5 3 3 3 3 3 5 5 5 5 5 3 3 l ) } ",
"=.=.>.,.,.,.,.,.n.m.m.m.m.m.B.J.C.Z.V.Z.Y.d.}. XOX[.r.5.E M p 4 $ < 5 5 3 2 3 3 3 3 3 2 5 v { | ",
"=.=.>.,.,.,.n.,.n.m.m.m.B.B.B.K.C.Z.u.s.g._.'._..Xr._.'.'.`./.W.W a > < 5 3 3 3 3 3 3 2 z ` $.-.",
">.>.>.,.,.n.n.n.m.m.B.B.B.B.K.M.l.q.a.g.a.f.g.g.W.a.i.y.y.y.P._.[.].6.u > 3 ; 3 3 ; 2 5 c { =.h.",
",.>.>.,.,.n.n.n.m.m.m.B.B.D.:.X.! 6.y.s.s.i.g.g.W.d.a.a.w.q.y.a.u.M.d.'.A # 3 3 3 = > l ` @.h.v.",
">.>.>.,.,.n.m.n.m.m.J.J.I.+.o.S.0.q.w.i.d.(.'..X.X/.g.W.s.y.Y.E.i.y.w.r.[.L = 2 5 I n b O.:.x.V.",
">.>.,.,.,.,.m.m.m.B.M.K. .G a.q.0.M.V.A.(.&X&X-X-X(.&X].~.). X(.H.y.y.w.1._.0.. M {.r.X.%.x.b.b.",
">.>.,.,.,.n.n.m.m.c.D.' Z a.q.y.S.G.C.x.R.-X-X-X-X|.*X&XoX@XoXG.R./.Y.s.y.<.g.! t.`.c.| h.b.V.V.",
">.>.,.,.n.n.n.m.m.K.@.A ].0.y.f.(.oX/.-.V.|.<X-X-X@X&X].OXoX^.|.@X@X/.F.y.r.^ g.[.0.{ &.v.V.V.V.",
">.=.,.,.n.m.m.m.M.j.y i.s.s.E.$X=X&X+XD.D.G.G.<X-X:X*X@XOX&X).XX-X-X-X|.Y.y.w.W `.B _ h.C.D.V.V.",
",.>.,.n.m.m.m.m.K.H K _.r.A.XX>X,X{.&X@X&XG.[ @X-XXXOXOX&X:X>X:X-X-X-X-XoXI.y.4.3.<.{ C.S.D.C.C.",
",.,.,.n.n.m.m.B.&.a d.f.}.|./.$X=X>X-X&XOX@X[ c.-X|.E.R.XX:X<X<X-X:X&X|.XX|.S.w.E f./ Z.Y.D.C.V.",
",.,.,.,.n.m.c.K.M D ].g. X%X:X&X%X<X-X-X@X-XV.' @XoX/.R.E.%XOX:X:X-XoX@X-X<X|.a./ w.i.C.D.D.C.V.",
":.>.,.n.n.m.c.J.u ^ ].(.OX&X:X>X<X<X<X<X-X#X*XX.v.-X|./.OX&X&X%X4X4X<X-XXXG.c.$.q.2.d.I.D.C.C.C.",
",.,.,.n.n.m.m.Q u i.^.OX&X&X=X:X<X-X<X<X-X-X-XY.X.Y.|..XoX/.Y.M.n.&.@.} } } | %.0.E i.P.G.D.C.C.",
",.,.,.n.n.n.c.{ f _.(.&X&X:X:X:X-X-X<X-X-X-X-X-X{ c ` _ ) [ [ @.=.m.Z.G.|././.R.S.U t.H.Y.D.C.D.",
"=.>.n.,.n.n.m.H n g.~.!.T.!.).:X-X-X-X-X<X<X<XoX_ x z :.c.V.G.E.!.(.).G.V.^.C.R.I.L t.H.G.A.D.D.",
",.>.,.,.,.,.c.m y f.^.Y.!.T.).:X<X-X<X<X-X-X-X@X` j { E.G.G.G.R.R./.oXXXD./.G./.!.L d.f.G.G.S.C.",
",.,.n.n.,.=.,.m q Z.oX-X:X<X<X<X-X<X-XoX@X@X@XOXS.l./.oXOX@XOXoXXX|.oX@X@X@X@X@XW.L g.4.G.G.S.C.",
",.,.,.,.,.>.,.a q N.OX-X:X:X:X:X<X-X&X&X<X-X<X-X&XOX&X-X-X-X-X@XoXXX|.|.oX@X@X@XF.U g.G R.D.D.C.",
",.>.>.,.,.=.>.f r A.&X:X-X-X-X<X-X|.-X3X<X<X4XS.n.%XOX>X:X<X<X-X+XoXXX|.|.oXoX&Xl.U a.X.R.G.G.D.",
",.>.>.,.>.=.,.g a p.:X:X-X<X-X:X@X-X-X<X3X-Xx.%.OX=X%X:X<X<X<X<X-X@XoXOXXX|.|.|.&.r.Y $.Y.G.G.C.",
",.>.,.,.=.&.&.t a p.&X<X<X&XXX&X&X-X<X4X|.) h.<X-X&X&X<X<X<X<X<X-X-X+XY./.oX|.F.1.3.B l.D.G.G.D.",
",.,.>.,.=.-.] 7 u p...<XoXOX:X<X@X<X<X<X#.#.<X-X@X-X=X<X<X<X<X<X<X<X-XOXE.Y./.-.e./ F Y.V.G.G.D.",
",.,.,.>.>.[ 9 H - 5.w.k.4X3X3X<XoX-X<X<X@X4X-X-X@X&X>X3X<X<X<X<X<X<X:X-X-XOXZ.e.H.A w.8X{.P.F.D.",
",.:.>.:.%.7 i d 6 u {.q.|.4X3X4X&X@X1X<X4X<X-X-X&X%X<X3X<X<X1X4X<X<X-X-X-X$XD t.Q e J 5.d.V.G.D.",
">.>.>.:.p u h a A 6 S ,XE.4X4X3X<X@X-X#X<X:X-XOX:X>X3X3X<X1X-X|.<X<X-X<XOX4.f._.r D d.5.T D.G.D.",
",.=.,. .; n g s M B & Y {.R.%X4X2X-X=X-X:X&X@XoX&X<X3X3X<X1X-XG.@X4X<X Xq.{.{.m n V f.{.0.S.G.D.",
">.=.-.l ; 9 s _ f A r ; ~ g.N.XX<X4X3X:X-X&X@X-X&X&X5X<X<X<X2XXXR.oX@Xs.,X,Xn d ~ M H L e.Z.D.D.",
"=.,.+.; ; s D ) l C N 0 0 5.[.$X*X>X4X4X4X<X&X-X;X%X4X4X4X2X4X-X^.&X4X8X,Xn i ^ J N D B 4.Z.C.C.",
"&.,.g - < - c _ l p P g & * Q $X,X4X<X<X:X-X-X<X-X&X4X<X<X-X-X&X<X7X8X].i d ^ ! B w h Q :.V.C.Z.",
"=.;.6 - > : @ j c e S n 7 O % 2.f.+X4X<X].d.Y.(.+X-X<X:X:X<X4X8X8X2X'.I N 2.2.U q u f ` ..v.V.Z.",
"=.%.w O : > > @ 1 u p Z r % o t 0.`.].,X<X[.=X4X6X6X7X6X7X6X8X_.{ H K R 1.2.2.C u h h ` #.V.C.I.",
"#.} 5 o > > > > > > 3 e h 6 O . * M ^ w.i.,X,X,X6X8X6X6X8X8X].T a D E <.<.2.S u _ ' { +.h.C.K.I.",
"+.j o > : : > > , > > $ 9 p ; $ .   % 9 s L 1.1.i.,X].].{.].q.5.q.^ ^ <.<.B u _ o.@.@.#.v.Z.8XK.",
"5 > : : : : : > > > , > o - u 0 = $ X X X # q h y.8Xd.2.8.7.8.8.4./ 4.~ d 8 _ +.&.*.*.l.C.K.K.K.",
"> > : : : > > > > > , < < o $ 6 8 6 * * ; 7 p T ].s.<.1.3.9.1.2.<.~ F p w _ +.:.c.z.l.m.K.K.K.K.",
"> @ > : : > > > > > , , < < $ o # 7 q r t d C +.=.I K 3.3.9.9.^ D a 9 l ` @.:.M.N.V.M.B.K.K.K.I.",
"> @ : : : : > > > > , , < < 1 < > $ 2 w f m m x  .J J ! ^ T Z p k j v ' @.l.c.J.Z.K.K.K.K.K.K.K.",
"> @ : : : > > > > > , < < < - 1 2 , > % - ; u x 5.F q e 0 6 6 w v ` X.%.l.M.M.K.8XI.K.K.K.K.J.B.",
"> @ : : : @ > > > > , , < < < 1 1 2 1 < 3 5 l Y 8.p * 0 w x ) ' +.$.&.z.M.M.Z.K.8XI.K.K.K.K.K.K.",
"> : : : : > > > > > > , < < < 1 1 1 3 2 2 5 , W Y y c b ` F @.%.&.l.z.M.M.M.K.K.8XK.K.K.K.K.K.K.",
"> : : : > > > > > > > , < < < 1 < 1 2 2 ; > 5 W A h Z { @.&.l.,.l.z.c.N.N.Z.K.K.K.K.K.K.K.K.J.J.",
"> : : : > > > > > , , , < < < 1 1 1 2 2 2 + a W ` ` o.&.l.M.c.j.x.m.J.K.K.K.K.K.K.K.K.J.J.J.B.B.",
"> : : : o > > > > > > , < < < < < 1 2 2 < + A ( A X.$.4.N.Z.J.x.x.m.J.K.I.K.L.8XK.K.K.K.B.B.B.B.",
"> : : : > > > > > , , , < < < 1 1 1 2 1 > k L T ' o.&.b.C.Z.C.b.k.C.K.K.K.K.K.8XK.K.C.K.B.B.B.B.",
"> : : : > > > > > , , , < < < < 1 2 2 $ > c &.{ { @.l.M.Z.S.Z.Z.N.Z.Z.Z.N.k.Z.Z.Z.Z.N.C.C.b.x.x."
};
