/* XPM */
static const char* hourglass_inverted[] = {
"32 32 299 2",
"  	c None",
". 	c #3F84B8",
"+ 	c #3375AD",
"@ 	c #3171AB",
"# 	c #2E6EAD",
"$ 	c #2E71B1",
"% 	c #3072B6",
"& 	c #2F73B6",
"* 	c #2F73B7",
"= 	c #2F75B9",
"- 	c #3179BC",
"; 	c #367FC0",
"> 	c #4191C8",
", 	c #4897C6",
"' 	c #2D6AAA",
") 	c #175BDB",
"! 	c #0E54EB",
"~ 	c #0950F2",
"{ 	c #054DF8",
"] 	c #034BFB",
"^ 	c #024AFD",
"/ 	c #0049FF",
"( 	c #145AE1",
"_ 	c #1F63D2",
": 	c #2063D0",
"< 	c #2164CF",
"[ 	c #2469CE",
"} 	c #266ED2",
"| 	c #2E78C7",
"1 	c #479ED4",
"2 	c #31689C",
"3 	c #2C6DBB",
"4 	c #1F63D1",
"5 	c #195EDA",
"6 	c #1258E5",
"7 	c #0F56E9",
"8 	c #0D53EC",
"9 	c #0950F1",
"0 	c #074FF5",
"a 	c #296BC3",
"b 	c #296CC5",
"c 	c #2C75D0",
"d 	c #3283D6",
"e 	c #52A5D0",
"f 	c #3675BD",
"g 	c #2163C9",
"h 	c #2C6DBC",
"i 	c #3173B8",
"j 	c #2F73BC",
"k 	c #2E73C0",
"l 	c #2D73C2",
"m 	c #2E73C4",
"n 	c #2E74C7",
"o 	c #2E76C9",
"p 	c #2E77CC",
"q 	c #2E7ACF",
"r 	c #2F7ED4",
"s 	c #3082DA",
"t 	c #3189E3",
"u 	c #2C86EE",
"v 	c #2178F7",
"w 	c #358BF2",
"x 	c #57B6E4",
"y 	c #52A8D7",
"z 	c #3977B3",
"A 	c #3270AF",
"B 	c #2265CB",
"C 	c #155BE0",
"D 	c #125AE6",
"E 	c #135CE6",
"F 	c #165FE5",
"G 	c #1861E4",
"H 	c #1B65E4",
"I 	c #1B67E6",
"J 	c #1865EB",
"K 	c #1664EF",
"L 	c #1361F3",
"M 	c #115FF6",
"N 	c #1464F6",
"O 	c #2176F3",
"P 	c #308FF3",
"Q 	c #489BEF",
"R 	c #52B2DD",
"S 	c #55B5E1",
"T 	c #3A79B6",
"U 	c #3371AD",
"V 	c #3373B1",
"W 	c #3375B5",
"X 	c #3377B9",
"Y 	c #3278BE",
"Z 	c #2F77C6",
"` 	c #2C76CE",
" .	c #2975D5",
"..	c #2977D9",
"+.	c #2C7CDB",
"@.	c #2E81DE",
"#.	c #3187DF",
"$.	c #338BE3",
"%.	c #338EE8",
"&.	c #3390ED",
"*.	c #3E97F0",
"=.	c #529EEB",
"-.	c #3D79AF",
";.	c #3F81C1",
">.	c #3778B8",
",.	c #3379BD",
"'.	c #337BC1",
").	c #337DC6",
"!.	c #337FCB",
"~.	c #3382D0",
"{.	c #3384D5",
"].	c #3387DA",
"^.	c #368BDF",
"/.	c #3B90E5",
"(.	c #4396E9",
"_.	c #4F9DEC",
":.	c #56A1EB",
"<.	c #428CCF",
"[.	c #4486B5",
"}.	c #488ECD",
"|.	c #4D94D9",
"1.	c #539DE6",
"2.	c #549EE8",
"3.	c #549EE9",
"4.	c #539EE9",
"5.	c #549FE9",
"6.	c #55A0EA",
"7.	c #57A1EB",
"8.	c #56A0EB",
"9.	c #4E9AE5",
"0.	c #4895DB",
"a.	c #4594CD",
"b.	c #466F83",
"c.	c #1F1F1F",
"d.	c #4693C3",
"e.	c #4289BA",
"f.	c #3E81B2",
"g.	c #4188BC",
"h.	c #4189BD",
"i.	c #4388BE",
"j.	c #448FC2",
"k.	c #4699C9",
"l.	c #333333",
"m.	c #343434",
"n.	c #202020",
"o.	c #323232",
"p.	c #222222",
"q.	c #0118CC",
"r.	c #040A81",
"s.	c #040474",
"t.	c #05026A",
"u.	c #050169",
"v.	c #040372",
"w.	c #04057E",
"x.	c #020FC3",
"y.	c #313131",
"z.	c #18216E",
"A.	c #0029FF",
"B.	c #0027FF",
"C.	c #0019FF",
"D.	c #1322A6",
"E.	c #303030",
"F.	c #22253D",
"G.	c #0124FD",
"H.	c #0024FF",
"I.	c #001AFF",
"J.	c #011AFB",
"K.	c #252A55",
"L.	c #0020FF",
"M.	c #002CFF",
"N.	c #272A38",
"O.	c #282828",
"P.	c #2C2C2C",
"Q.	c #272727",
"R.	c #252525",
"S.	c #242424",
"T.	c #001BFF",
"U.	c #0212DC",
"V.	c #020EBA",
"W.	c #0017EF",
"X.	c #04047C",
"Y.	c #0112D0",
"Z.	c #0021FF",
"`.	c #212121",
" +	c #0116EB",
".+	c #040580",
"++	c #0019FC",
"@+	c #001DFF",
"#+	c #002DFF",
"$+	c #353535",
"%+	c #050060",
"&+	c #040687",
"*+	c #15269A",
"=+	c #020EB9",
"-+	c #040374",
";+	c #0018FB",
">+	c #0031FF",
",+	c #0030FF",
"'+	c #0A34F9",
")+	c #373737",
"!+	c #2E4D64",
"~+	c #1939A3",
"{+	c #04057D",
"]+	c #040476",
"^+	c #030AA0",
"/+	c #030CAB",
"(+	c #030CAA",
"_+	c #030CA7",
":+	c #0211B0",
"<+	c #021DBF",
"[+	c #0126E9",
"}+	c #1540DD",
"|+	c #37546F",
"1+	c #3C7FBF",
"2+	c #263B52",
"3+	c #233966",
"4+	c #132381",
"5+	c #091286",
"6+	c #05087C",
"7+	c #040574",
"8+	c #05036E",
"9+	c #05026B",
"0+	c #050370",
"a+	c #040575",
"b+	c #05077B",
"c+	c #050A82",
"d+	c #08138C",
"e+	c #16298B",
"f+	c #2B487F",
"g+	c #345A83",
"h+	c #388AE4",
"i+	c #3E82BF",
"j+	c #2465C5",
"k+	c #1C5AC6",
"l+	c #1D4A9B",
"m+	c #244679",
"n+	c #29486F",
"o+	c #2A4C73",
"p+	c #2C4E74",
"q+	c #2D527B",
"r+	c #2E5075",
"s+	c #2E527B",
"t+	c #2F5179",
"u+	c #2E5381",
"v+	c #2B5492",
"w+	c #225AB3",
"x+	c #1F75F7",
"y+	c #3D96F3",
"z+	c #3E7FBC",
"A+	c #2F71BB",
"B+	c #246ACE",
"C+	c #1B62DC",
"D+	c #1760E3",
"E+	c #145EE8",
"F+	c #115BEE",
"G+	c #115CEF",
"H+	c #1460EE",
"I+	c #1663EE",
"J+	c #1969EF",
"K+	c #2275EC",
"L+	c #2C85EB",
"M+	c #3492F2",
"N+	c #4B9EEF",
"O+	c #4B96D5",
"P+	c #3372AE",
"Q+	c #3384D4",
"R+	c #3386D9",
"S+	c #3389DE",
"T+	c #3A93ED",
"U+	c #4D9DED",
"V+	c #50A2EE",
"W+	c #59BDF1",
"X+	c #52A4E4",
"Y+	c #4A94D8",
"Z+	c #4186CA",
"`+	c #3F85C9",
" @	c #3D84CA",
".@	c #3C85CD",
"+@	c #3B85CF",
"@@	c #3A86D1",
"#@	c #3A88D6",
"$@	c #3C8CDA",
"%@	c #3E8EDF",
"&@	c #4494E4",
"*@	c #4A98E8",
"=@	c #51A7F1",
"-@	c #55BEFB",
";@	c #59B7F2",
">@	c #56ADEC",
",@	c #53A7E9",
"'@	c #52A4E8",
")@	c #51A3E8",
"!@	c #51A4E8",
"~@	c #51A5EB",
"{@	c #53A8EC",
"]@	c #52A8ED",
"^@	c #55ADF1",
"/@	c #57B4F4",
"(@	c #59BDF9",
"                    . + @ # $ % & * = - ; >                     ",
"              , ' ) ! ~ { ] ^ / / ( _ : < [ } | 1               ",
"              2 3 4 5 ( 6 7 8 9 0 _ a a a a b c d               ",
"            e f g h i j k l m n o p q r s t u v w x             ",
"            y z A B C D E F G H I J K L M N O P Q R             ",
"            S T U V W X Y Z `  ...+.@.#.$.%.&.*.=.              ",
"              -.;.>.W X ,.'.).!.~.{.].^./.(._.:.<.              ",
"                [.}.|.1.2.2.2.3.4.5.6.7.8.9.0.a.b.              ",
"                c.      d.e.f.g.h.i.j.k.      l.                ",
"                                              m.                ",
"                  n.                        o.                  ",
"                    p.  q.r.s.t.u.v.w.x.  y.                    ",
"                        z.A.B.C.C.C.C.D.E.                      ",
"                          F.G.H.I.J.K.                          ",
"                              L.M.N.                            ",
"                            O.    P.                            ",
"                            O.    P.                            ",
"                          Q.                                    ",
"                        R.                                      ",
"                      S.      T.A.      y.                      ",
"                    S.    U.V.C.L.M.      y.                    ",
"                  p.    W.X.Y.C.C.Z.M.      m.                  ",
"                `.     +.+t.++C.C.C.@+#+A.    $+                ",
"                `.  x.t.%+&+C.C.C.C.C.I.M.#+                    ",
"                *+=+%+%+%+-+;+C.C.C.C.C.T.>+,+'+)+              ",
"              !+~+{+%+%+%+%+]+^+/+(+^+_+:+<+[+}+|+              ",
"              1+2+3+4+5+6+7+8+9+0+a+b+c+d+e+f+g+h+              ",
"              i+j+k+l+m+n+o+p+q+r+s+t+u+v+w+I x+y+              ",
"              z+U V A+B+C+D+E+F+G+H+I+J+K+L+&.M+N+              ",
"              O+P+V W X ,.'.).!.~.Q+R+S+$.%.T+U+V+              ",
"              W+X+Y+Z+`+ @.@+@@@#@$@%@&@*@=.:.=@-@              ",
"                    ;@>@,@'@)@!@~@{@]@^@/@(@                    "};
